<svg
   width="24"
   height="24"
   viewBox="0 0 24 24"
   fill="none"
   xmlns="http://www.w3.org/2000/svg"
>
   <path
      d="M10.7778 5.71429H23M10.7778 5.71429C10.7778 8.31791 9.13616 10.4286 7.11111 10.4286C5.08607 10.4286 3.44444 8.31791 3.44444 5.71429M10.7778 5.71429C10.7778 3.11066 9.13616 1 7.11111 1C5.08607 1 3.44444 3.11066 3.44444 5.71429M3.44444 5.71429H1M13.2222 18.2857H1M13.2222 18.2857C13.2222 15.6821 14.8638 13.5714 16.8889 13.5714C18.9139 13.5714 20.5556 15.6821 20.5556 18.2857M13.2222 18.2857C13.2222 20.8893 14.8638 23 16.8889 23C18.9139 23 20.5556 20.8893 20.5556 18.2857M20.5556 18.2857H23"
      stroke="#fff"
      stroke-linecap="round"
      stroke-linejoin="round"
   />
</svg>