<svg width="122" height="122" viewBox="0 0 122 122" fill="none" xmlns="http://www.w3.org/2000/svg">
   <mask id="path-1-inside-1_158_386" fill="white">
      <path
         d="M121.3 61C121.3 68.9187 119.74 76.7599 116.71 84.0758C113.68 91.3917 109.238 98.0392 103.639 103.639C98.0392 109.238 91.3918 113.68 84.0758 116.71C76.7599 119.74 68.9187 121.3 61 121.3C53.0813 121.3 45.2401 119.74 37.9242 116.71C30.6083 113.68 23.9608 109.238 18.3615 103.639C12.7621 98.0392 8.32043 91.3917 5.29007 84.0758C2.25972 76.7599 0.700012 68.9187 0.700012 61L61 61H121.3Z" />
   </mask>
   <path
      d="M121.3 61C121.3 68.9187 119.74 76.7599 116.71 84.0758C113.68 91.3917 109.238 98.0392 103.639 103.639C98.0392 109.238 91.3918 113.68 84.0758 116.71C76.7599 119.74 68.9187 121.3 61 121.3C53.0813 121.3 45.2401 119.74 37.9242 116.71C30.6083 113.68 23.9608 109.238 18.3615 103.639C12.7621 98.0392 8.32043 91.3917 5.29007 84.0758C2.25972 76.7599 0.700012 68.9187 0.700012 61L61 61H121.3Z"
      fill="white" stroke="#151515" stroke-width="12" mask="url(#path-1-inside-1_158_386)" />
   <mask id="path-2-inside-2_158_386" fill="white">
      <path
         d="M121.3 61C121.3 53.0813 119.74 45.2402 116.71 37.9242C113.68 30.6083 109.238 23.9609 103.639 18.3615C98.0392 12.7621 91.3918 8.32047 84.0758 5.29012C76.7599 2.25976 68.9187 0.70005 61 0.70005C53.0813 0.70005 45.2401 2.25976 37.9242 5.29012C30.6083 8.32047 23.9608 12.7621 18.3615 18.3615C12.7621 23.9609 8.32043 30.6083 5.29007 37.9242C2.25972 45.2402 0.700012 53.0813 0.700012 61.0001L61 61H121.3Z" />
   </mask>
   <path
      d="M121.3 61C121.3 53.0813 119.74 45.2402 116.71 37.9242C113.68 30.6083 109.238 23.9609 103.639 18.3615C98.0392 12.7621 91.3918 8.32047 84.0758 5.29012C76.7599 2.25976 68.9187 0.70005 61 0.70005C53.0813 0.70005 45.2401 2.25976 37.9242 5.29012C30.6083 8.32047 23.9608 12.7621 18.3615 18.3615C12.7621 23.9609 8.32043 30.6083 5.29007 37.9242C2.25972 45.2402 0.700012 53.0813 0.700012 61.0001L61 61H121.3Z"
      fill="#E11B1D" stroke="#151515" stroke-width="12" mask="url(#path-2-inside-2_158_386)" />
   <circle cx="61" cy="61.0001" r="17.1" fill="#D0D0D0" stroke="#151515" stroke-width="6" />
</svg>
   