<svg width="14" height="14" viewBox="0 0 14 14" fill="none" xmlns="http://www.w3.org/2000/svg">
   <path
      d="M9.87993 9.47059L9.47617 9.05882H9.06416C9.06416 9.05882 10.7122 7.64787 10.7122 5.35294C10.7122 3.05802 8.31431 0 5.35609 0C2.39788 0 0 2.28486 0 5.35294C0 8.42102 3.29606 10.7059 5.35609 10.7059C7.41613 10.7059 9.06416 9.05882 9.06416 9.05882V9.47059L9.46792 9.88235L13.588 14L14 13.5882L9.87993 9.47059ZM5.35609 9.87412C3.35827 9.86705 0.773029 7.64338 0.824015 5.35294C0.875 3.0625 2.48374 0.823529 5.34785 0.823529C8.21197 0.823529 9.87994 3.20949 9.87994 5.35294C9.87994 7.49639 7.68292 9.88235 5.35609 9.87412Z"
      fill="#09090B" />
</svg>
   